<?xml version="1.0" encoding="iso-8859-1"?>
<!-- Generator: Adobe Illustrator 16.0.0, SVG Export Plug-In . SVG Version: 6.00 Build 0)  -->
<!DOCTYPE svg PUBLIC "-//W3C//DTD SVG 1.1//EN" "http://www.w3.org/Graphics/SVG/1.1/DTD/svg11.dtd">
<svg version="1.1" id="Capa_1" xmlns="http://www.w3.org/2000/svg" xmlns:xlink="http://www.w3.org/1999/xlink" x="0px" y="0px"
	 width="603.207px" height="603.208px" viewBox="0 0 603.207 603.208" style="enable-background:new 0 0 603.207 603.208;"
	 xml:space="preserve">
<g>
	<g>
		<path d="M544.568,87.684H58.64c-32.059,0-58.14,26.082-58.14,58.14v311.559c0,32.059,26.082,58.141,58.14,58.141h485.928
			c32.059,0,58.139-26.082,58.139-58.141V145.824C602.707,113.766,576.627,87.684,544.568,87.684z M43.34,145.824
			c0-8.45,6.85-15.3,15.3-15.3h485.928c8.449,0,15.299,6.85,15.299,15.3v31.263H43.34V145.824z M559.867,246.638H43.34v-26.711
			h516.527V246.638z M559.867,457.382c0,8.45-6.85,15.301-15.299,15.301H58.64c-8.45,0-15.3-6.851-15.3-15.301V289.478h516.527
			V457.382z"/>
		<path d="M544.568,516.023H58.64C26.306,516.023,0,489.717,0,457.382V145.824c0-32.334,26.306-58.64,58.64-58.64h485.928
			c32.333,0,58.639,26.306,58.639,58.64v311.559C603.207,489.717,576.901,516.023,544.568,516.023z M58.64,88.184
			C26.857,88.184,1,114.041,1,145.824v311.559c0,31.783,25.857,57.641,57.64,57.641h485.928c31.782,0,57.639-25.857,57.639-57.641
			V145.824c0-31.783-25.856-57.64-57.639-57.64H58.64z M544.568,473.183H58.64c-8.712,0-15.8-7.088-15.8-15.801V288.978h517.527
			v168.404C560.367,466.095,553.28,473.183,544.568,473.183z M43.84,289.978v167.404c0,8.161,6.639,14.801,14.8,14.801h485.928
			c8.16,0,14.799-6.64,14.799-14.801V289.978H43.84z M560.367,247.138H42.84v-27.711h517.527V247.138z M43.84,246.138h515.527
			v-25.711H43.84V246.138z M560.367,177.587H42.84v-31.763c0-8.712,7.088-15.8,15.8-15.8h485.928c8.712,0,15.799,7.088,15.799,15.8
			V177.587z M43.84,176.587h515.527v-30.763c0-8.161-6.639-14.8-14.799-14.8H58.64c-8.161,0-14.8,6.639-14.8,14.8V176.587z"/>
	</g>
	<g>
		<path d="M462.113,449.236h14.02c32.059,0,58.141-26.082,58.141-58.14v-14.021c0-32.058-26.082-58.14-58.141-58.14h-14.02
			c-32.059,0-58.139,26.082-58.139,58.14v14.021C403.975,423.154,430.057,449.236,462.113,449.236z M446.814,377.076
			c0-8.449,6.85-15.3,15.299-15.3h14.02c8.449,0,15.301,6.851,15.301,15.3v14.021c0,8.449-6.852,15.3-15.301,15.3h-14.02
			c-8.449,0-15.299-6.851-15.299-15.3V377.076z"/>
		<path d="M476.133,449.736h-14.02c-32.333,0-58.639-26.306-58.639-58.64v-14.021c0-32.334,26.306-58.64,58.639-58.64h14.02
			c32.335,0,58.641,26.306,58.641,58.64v14.021C534.773,423.43,508.468,449.736,476.133,449.736z M462.113,319.436
			c-31.782,0-57.639,25.857-57.639,57.64v14.021c0,31.782,25.856,57.64,57.639,57.64h14.02c31.783,0,57.641-25.857,57.641-57.64
			v-14.021c0-31.782-25.857-57.64-57.641-57.64H462.113z M476.133,406.896h-14.02c-8.712,0-15.799-7.088-15.799-15.8v-14.021
			c0-8.712,7.087-15.8,15.799-15.8h14.02c8.713,0,15.801,7.088,15.801,15.8v14.021C491.934,399.808,484.846,406.896,476.133,406.896
			z M462.113,362.276c-8.16,0-14.799,6.64-14.799,14.8v14.021c0,8.16,6.639,14.8,14.799,14.8h14.02c8.161,0,14.801-6.64,14.801-14.8
			v-14.021c0-8.16-6.64-14.8-14.801-14.8H462.113z"/>
	</g>
</g>
<g>
</g>
<g>
</g>
<g>
</g>
<g>
</g>
<g>
</g>
<g>
</g>
<g>
</g>
<g>
</g>
<g>
</g>
<g>
</g>
<g>
</g>
<g>
</g>
<g>
</g>
<g>
</g>
<g>
</g>
</svg>
