<?xml version="1.0" encoding="iso-8859-1"?>
<!-- Generator: Adobe Illustrator 19.0.0, SVG Export Plug-In . SVG Version: 6.00 Build 0)  -->
<svg version="1.1" id="Capa_1" xmlns="http://www.w3.org/2000/svg" xmlns:xlink="http://www.w3.org/1999/xlink" x="0px" y="0px"
	 viewBox="0 0 511.016 511.016" style="enable-background:new 0 0 511.016 511.016;" xml:space="preserve">
<g>
	<path d="M167.508,308.004c-4.142,0-7.5,3.358-7.5,7.5v40c0,4.142,3.358,7.5,7.5,7.5s7.5-3.358,7.5-7.5v-40
		C175.008,311.362,171.65,308.004,167.508,308.004z"/>
	<path d="M167.508,244.004c-4.142,0-7.5,3.358-7.5,7.5v40c0,4.142,3.358,7.5,7.5,7.5s7.5-3.358,7.5-7.5v-40
		C175.008,247.362,171.65,244.004,167.508,244.004z"/>
	<path d="M118.508,300.004h-38c-4.687,0-8.5,3.813-8.5,8.5v46c0,4.687,3.813,8.5,8.5,8.5h38c4.687,0,8.5-3.813,8.5-8.5v-46
		C127.008,303.817,123.195,300.004,118.508,300.004z M112.008,315.004v9h-25v-9H112.008z M87.008,348.004v-9h25v9H87.008z"/>
	<path d="M439.516,324.012c-21.78,0-39.5,17.72-39.5,39.5s17.72,39.5,39.5,39.5s39.5-17.72,39.5-39.5
		S461.296,324.012,439.516,324.012z M439.516,388.012c-13.509,0-24.5-10.991-24.5-24.5s10.991-24.5,24.5-24.5s24.5,10.991,24.5,24.5
		S453.025,388.012,439.516,388.012z"/>
	<path d="M439.516,227.012c21.78,0,39.5-17.72,39.5-39.5s-17.72-39.5-39.5-39.5s-39.5,17.72-39.5,39.5
		S417.736,227.012,439.516,227.012z M439.516,163.012c13.509,0,24.5,10.991,24.5,24.5s-10.991,24.5-24.5,24.5
		s-24.5-10.991-24.5-24.5S426.007,163.012,439.516,163.012z"/>
	<path d="M295.521,268.012c-1.98,0-3.91,0.8-5.31,2.2c-1.39,1.39-2.19,3.33-2.19,5.3s0.8,3.91,2.19,5.3c1.4,1.4,3.33,2.2,5.31,2.2
		c1.97,0,3.9-0.8,5.3-2.2c1.39-1.39,2.2-3.33,2.2-5.3s-0.81-3.91-2.2-5.3C299.42,268.812,297.49,268.012,295.521,268.012z"/>
	<path d="M439.516,292.012c-12.769,0-25.138,3.36-36.06,9.757l-44.043-26.257l44.043-26.256c10.922,6.397,23.291,9.757,36.06,9.757
		c39.425,0,71.5-32.075,71.5-71.5s-32.075-71.5-71.5-71.5s-71.5,32.075-71.5,71.5c0,3.065,0.197,6.135,0.589,9.178l-66.814,39.832
		c-2.051-0.326-4.144-0.51-6.275-0.51c-0.771,0-1.497,0.049-2.164,0.117l-46.344-27.628V107.504c0-17.369-14.131-31.5-31.5-31.5
		h-160c-17.369,0-31.5,14.131-31.5,31.5v15.323H7.501c-3.375,0-6.334,2.254-7.23,5.508c-0.896,3.254,0.491,6.706,3.39,8.434
		L24.008,148.9v222.604c0,9.602,4.323,18.208,11.12,23.99L3.66,414.254c-2.899,1.728-4.287,5.18-3.39,8.434
		c0.896,3.254,3.855,5.508,7.23,5.508h49.658c30.185,0,59.844-8.17,85.771-23.626l2.627-1.566h69.951
		c17.369,0,31.5-14.131,31.5-31.5v-28.981l46.268-27.583c0.743,0.042,1.489,0.071,2.24,0.071c1.999,0,4.048-0.182,6.203-0.553
		l66.886,39.875c-0.392,3.043-0.589,6.113-0.589,9.178c0,39.425,32.075,71.5,71.5,71.5s71.5-32.075,71.5-71.5
		S478.941,292.012,439.516,292.012z M380.683,206.953c2.744-1.636,4.15-4.829,3.505-7.958c-0.777-3.767-1.171-7.631-1.171-11.483
		c0-31.154,25.346-56.5,56.5-56.5s56.5,25.346,56.5,56.5s-25.346,56.5-56.5,56.5c-11.377,0-22.349-3.373-31.73-9.755
		c-2.411-1.64-5.555-1.734-8.059-0.241l-54.96,32.764l-13.586-8.099c-2.841-6.049-7.058-11.136-12.192-14.949L380.683,206.953z
		 M39.008,107.504c0-9.098,7.402-16.5,16.5-16.5h160c9.098,0,16.5,7.402,16.5,16.5v92.054l-57.257-34.134
		c0.162-0.614,0.257-1.255,0.257-1.92v-40c0-4.142-3.358-7.5-7.5-7.5s-7.5,3.358-7.5,7.5v33.131l-17.079-10.182
		c-25.927-15.457-55.586-23.626-85.771-23.626h-18.15V107.504z M57.159,413.197H34.728l17.404-10.376
		c1.11,0.119,2.236,0.183,3.376,0.183h56.45C94.539,409.71,75.962,413.197,57.159,413.197z M215.508,388.004h-160
		c-9.098,0-16.5-7.402-16.5-16.5V157.843l153,91.212v106.449c0,4.142,3.358,7.5,7.5,7.5s7.5-3.358,7.5-7.5v-97.507l25,14.904v98.603
		C232.008,380.602,224.607,388.004,215.508,388.004z M247.008,325.06v-43.217l11.37,6.778c2.982,8.475,8.688,15.49,15.946,20.153
		L247.008,325.06z M439.516,420.012c-31.154,0-56.5-25.346-56.5-56.5c0-3.853,0.394-7.716,1.171-11.483
		c0.646-3.128-0.761-6.322-3.505-7.958l-73.788-43.989c-1.171-0.698-2.499-1.058-3.841-1.058c-0.591,0-1.185,0.07-1.768,0.211
		c-2.184,0.53-4.018,0.777-5.77,0.777c-0.952,0-1.889-0.076-2.818-0.185c-0.022-0.004-0.044-0.005-0.067-0.009
		c-9.808-1.18-18.099-8.271-20.689-18.08c-0.501-1.897-1.726-3.522-3.411-4.527L39.008,140.379v-2.552h18.15
		c27.482,0,54.485,7.438,78.09,21.51l152.641,90.998c1.422,0.848,3.087,1.201,4.729,1.005c0.371-0.044,0.74-0.094,1.108-0.145
		c0.72-0.098,1.341-0.184,1.789-0.184c1.977,0,3.905,0.241,5.762,0.688c0.018,0.005,0.036,0.01,0.055,0.015
		c7.617,1.854,13.963,7.292,16.941,14.9c0.607,1.551,1.713,2.855,3.144,3.708l78.31,46.685c2.505,1.494,5.648,1.399,8.059-0.241
		c9.381-6.382,20.353-9.755,31.73-9.755c31.154,0,56.5,25.346,56.5,56.5S470.67,420.012,439.516,420.012z"/>
</g>
<g>
</g>
<g>
</g>
<g>
</g>
<g>
</g>
<g>
</g>
<g>
</g>
<g>
</g>
<g>
</g>
<g>
</g>
<g>
</g>
<g>
</g>
<g>
</g>
<g>
</g>
<g>
</g>
<g>
</g>
</svg>
