<svg width="64px" height="64px" viewBox="0 0 64 64" xmlns="http://www.w3.org/2000/svg" xmlns:xlink="http://www.w3.org/1999/xlink" aria-hidden="true" role="img" class="iconify iconify--emojione-monotone" preserveAspectRatio="xMidYMid meet"><path d="M18.418 17.004l-1.168-3.687l-1.135 3.687h-3.782l3.025 2.395l-1.146 3.751l3.038-2.307l3.038 2.307l-1.146-3.751l3.025-2.395z" fill="currentColor"></path><path d="M43.712 48.717l3.038-2.307l3.038 2.307l-1.146-3.751l3.025-2.396h-3.749l-1.168-3.687l-1.135 3.687h-3.782l3.025 2.396z" fill="currentColor"></path><path d="M32 2C15.432 2 2 15.432 2 32s13.432 30 30 30s30-13.432 30-30S48.568 2 32 2zm0 58V32H4C4 16.561 16.561 4 32 4v28h28c0 15.439-12.561 28-28 28z" fill="currentColor"></path></svg>