<?xml version="1.0" encoding="iso-8859-1"?>
<!-- Generator: Adobe Illustrator 19.0.0, SVG Export Plug-In . SVG Version: 6.00 Build 0)  -->
<svg version="1.1" id="Layer_1" xmlns="http://www.w3.org/2000/svg" xmlns:xlink="http://www.w3.org/1999/xlink" x="0px" y="0px"
	 viewBox="0 0 496 496" style="enable-background:new 0 0 496 496;" xml:space="preserve">
<g>
	<g>
		<g>
			<path d="M456,392c22.056,0,40-17.944,40-40V128c0-22.056-17.944-40-40-40h-72V0H112v88H40c-22.056,0-40,17.944-40,40v224
				c0,22.056,17.944,40,40,40h256v104h16V264c0-13.232,10.768-24,24-24s24,10.768,24,24v232h16v-24c0-13.232,10.768-24,24-24
				s24,10.768,24,24v24h16v-28c0-11.032,8.968-20,20-20c11.032,0,20,8.968,20,20v28h16v-28c0-19.848-16.152-36-36-36
				c-11.896,0-22.464,5.8-29.024,14.72C423.64,437.744,412.48,432,400,432c-9,0-17.312,2.984-24,8.016V392H456z M432,104h24
				c13.232,0,24,10.768,24,24v224c0,13.232-10.768,24-24,24h-24V104z M128,16h16v16h16V16h16v16h16V16h16v16h16V16h16v16h16V16h16
				v16h16V16h16v16h16V16h16v16h16V16h16v72H128V16z M48,376h-8c-13.232,0-24-10.768-24-24V128c0-13.232,10.768-24,24-24h8V376z
				 M296,376H64V104h352v272h-40v-86.232c15.056-12.12,24-30.36,24-49.768c0-35.288-28.712-64-64-64c-35.288,0-64,28.712-64,64
				c0,19.408,8.944,37.648,24,49.768V376z M336,224c-22.056,0-40,17.944-40,40v2.4c-5.12-7.752-8-16.896-8-26.4
				c0-26.472,21.528-48,48-48s48,21.528,48,48c0,9.504-2.88,18.648-8,26.4V264C376,241.944,358.056,224,336,224z"/>
			<rect x="448" y="200" width="16" height="80"/>
			<path d="M104,288H80v72h16v-24h8c13.232,0,24-10.768,24-24S117.232,288,104,288z M104,320h-8v-16h8c4.416,0,8,3.584,8,8
				C112,316.416,108.416,320,104,320z"/>
			<path d="M168,288c-13.232,0-24,10.768-24,24v48h16v-24h16v24h16v-48C192,298.768,181.232,288,168,288z M176,320h-16v-8
				c0-4.416,3.584-8,8-8s8,3.584,8,8V320z"/>
			<path d="M240,312c0,4.416-3.584,8-8,8s-8-3.584-8-8v-24h-16v24c0,10.416,6.704,19.216,16,22.528V360h16v-25.472
				c9.288-3.312,16-12.112,16-22.528v-24h-16V312z"/>
			<path d="M184,128c0,8.824-7.184,16-16,16c-8.824,0-16-7.176-16-16v-8H80v64h32v88h112v-88h32v-64h-72V128z M208,216h-16v16h16v24
				h-80v-24h48v-16h-48v-16h80V216z M198.984,136H240v32h-32v16h-80v-16H96v-32h41.016c3.552,13.792,16.104,24,30.984,24
				S195.432,149.792,198.984,136z"/>
			<rect x="144" y="48" width="208" height="16"/>
		</g>
	</g>
</g>
<g>
</g>
<g>
</g>
<g>
</g>
<g>
</g>
<g>
</g>
<g>
</g>
<g>
</g>
<g>
</g>
<g>
</g>
<g>
</g>
<g>
</g>
<g>
</g>
<g>
</g>
<g>
</g>
<g>
</g>
</svg>
