<?xml version="1.0" encoding="iso-8859-1"?>
<!-- Generator: Adobe Illustrator 18.1.1, SVG Export Plug-In . SVG Version: 6.00 Build 0)  -->
<svg version="1.1" id="Capa_1" xmlns="http://www.w3.org/2000/svg" xmlns:xlink="http://www.w3.org/1999/xlink" x="0px" y="0px"
	 viewBox="0 0 612.001 612.001" style="enable-background:new 0 0 612.001 612.001;" xml:space="preserve">
<g>
	<path d="M609.343,252.192L359.809,2.658c-1.81-1.81-4.29-2.769-6.856-2.645c-2.556,0.124-4.941,1.324-6.564,3.302l-44.367,54.001
		c-1.058,1.288-1.74,2.843-1.973,4.494l-4.368,31.011L170.243,243.079l-40.778,2.09c-2.241,0.115-4.362,1.058-5.949,2.645
		l-45.75,45.75c-1.701,1.701-2.657,4.008-2.657,6.413c0,2.406,0.956,4.711,2.657,6.413l81.868,81.866L3.078,561.985
		c-4.265,4.735-4.076,11.979,0.429,16.484l30.027,30.023c2.332,2.332,5.397,3.507,8.469,3.507c2.863,0,5.731-1.021,8.015-3.08
		l173.725-156.555l81.868,81.868c1.701,1.701,4.008,2.657,6.413,2.657c2.406,0,4.711-0.956,6.413-2.657l45.748-45.75
		c1.587-1.587,2.531-3.707,2.645-5.949l2.092-40.78l150.261-125.439l31.015-4.37c1.651-0.233,3.204-0.915,4.494-1.973l53.998-44.365
		c1.977-1.624,3.175-4.008,3.302-6.564C612.113,256.492,611.151,254,609.343,252.192z"/>
</g>
<g>
</g>
<g>
</g>
<g>
</g>
<g>
</g>
<g>
</g>
<g>
</g>
<g>
</g>
<g>
</g>
<g>
</g>
<g>
</g>
<g>
</g>
<g>
</g>
<g>
</g>
<g>
</g>
<g>
</g>
</svg>
